<svg width="32" height="30" viewBox="0 0 32 30" fill="none" xmlns="http://www.w3.org/2000/svg">
<path d="M24.7273 13.5H13.0909V16.5H24.7273V21L32 15L24.7273 9V13.5ZM26.1818 24H22.2429C20.5634 25.5275 18.4921 26.5228 16.2776 26.8664C14.0632 27.21 11.7996 26.8874 9.75854 25.9372C7.71747 24.9871 5.98563 23.4498 4.77081 21.5097C3.55599 19.5697 2.90981 17.3094 2.90981 15C2.90981 12.6906 3.55599 10.4303 4.77081 8.49028C5.98563 6.55025 7.71747 5.01291 9.75854 4.06275C11.7996 3.11259 14.0632 2.78996 16.2776 3.13359C18.4921 3.47722 20.5634 4.4725 22.2429 6H26.1818C24.8281 4.13577 23.0715 2.62277 21.0515 1.58122C19.0315 0.539663 16.8039 -0.00174546 14.5455 4.22743e-06C6.512 4.22743e-06 0 6.7155 0 15C0 23.2845 6.512 30 14.5455 30C16.8039 30.0017 19.0315 29.4603 21.0515 28.4188C23.0715 27.3772 24.8281 25.8642 26.1818 24Z" fill="#053B50"/>
</svg>
