<svg width="133" height="99" viewBox="0 0 133 99" fill="none" xmlns="http://www.w3.org/2000/svg">
<path d="M81.1178 6.06341L52.2663 47.4765L0 26.4971L65.9816 0L81.1178 6.06341Z" fill="#2E97A7"/>
<path d="M132.828 26.7396L65.9198 52.9336L52.2663 47.4765L81.1178 6.06341L132.828 26.7396Z" fill="#053B50"/>
<path d="M49.1773 51.9634L32.4966 75.7926C27.4923 73.246 23.7855 70.6993 21.7467 69.0016V41.0493L49.1773 51.9634Z" fill="#2E97A7"/>
<path d="M110.711 41.0493V69.0622C79.5115 92.5276 48.992 84.2207 32.5583 75.8532L49.2391 52.024L66.2287 58.8151L110.711 41.0493Z" fill="#053B50"/>
<path d="M126.527 33.5306H124.055V60.7553H126.527V33.5306Z" fill="#053B50"/>
<path d="M125.291 64.5753C127.679 64.5753 129.616 62.675 129.616 60.3309C129.616 57.9868 127.679 56.0865 125.291 56.0865C122.902 56.0865 120.966 57.9868 120.966 60.3309C120.966 62.675 122.902 64.5753 125.291 64.5753Z" fill="#053B50"/>
<path d="M120.966 83.7963C120.966 91.8 125.291 98.2272 125.291 98.2272C125.291 98.2272 129.616 91.7394 129.616 83.7963C129.616 75.7926 125.291 69.3654 125.291 69.3654C125.291 69.3654 120.966 75.7926 120.966 83.7963Z" fill="#2E97A7"/>
</svg>
