<svg width="367" height="90" viewBox="0 0 367 90" fill="none" xmlns="http://www.w3.org/2000/svg">
<path d="M41.4999 9.63562H2.0221C1.03361 9.63562 0.230469 8.84738 0.230469 7.87723V2.4808C0.230469 1.51066 1.03361 0.722412 2.0221 0.722412H41.4999C42.4883 0.722412 43.2915 1.51066 43.2915 2.4808V7.87723C43.2915 8.84738 42.4883 9.63562 41.4999 9.63562Z" fill="#053B50"/>
<path d="M41.4999 58.0823H2.0221C1.03361 58.0823 0.230469 57.294 0.230469 56.3239V50.9274C0.230469 49.9573 1.03361 49.169 2.0221 49.169H41.4999C42.4883 49.169 43.2915 49.9573 43.2915 50.9274V56.3239C43.2915 57.294 42.4883 58.0823 41.4999 58.0823Z" fill="#053B50"/>
<path d="M40.1407 33.7074H1.96032C0.97183 33.7074 0.230469 32.9191 0.230469 32.0096V26.7951C0.230469 25.8249 1.03361 25.0973 1.96032 25.0973H40.1407C41.1292 25.0973 41.8705 25.8856 41.8705 26.7951V32.0096C41.8705 32.9191 41.1292 33.7074 40.1407 33.7074Z" fill="#053B50"/>
<path d="M86.2907 0.783046V20.4891C82.7692 17.5787 78.0739 15.9416 72.6372 15.9416C59.6633 15.9416 50.9523 24.6729 50.9523 37.7092C50.9523 50.7455 59.6633 59.5375 72.5755 59.5375C77.765 59.5375 82.6457 57.7791 86.2907 54.6867V58.9311H94.6929V0.783046H86.2907ZM72.7608 51.2912C66.2738 51.2912 59.3544 47.7138 59.3544 37.7698C59.3544 27.7046 66.2738 24.1878 72.7608 24.1878C80.5451 24.1878 86.1672 29.8874 86.1672 37.7092C86.1672 45.6523 80.6687 51.2912 72.7608 51.2912Z" fill="#2E97A7"/>
<path d="M145.415 16.4873V58.9311H137.013V55.8994C133.985 58.2035 130.031 59.4768 125.645 59.5375C113.598 59.5375 105.875 52.0795 105.875 40.559V16.4873H114.401V40.4984C114.401 43.9545 115.328 46.6224 117.243 48.5021C119.158 50.3817 122.185 51.3519 125.768 51.2912C132.379 51.2306 136.951 46.5011 136.951 39.8314V16.4873H145.415Z" fill="#2E97A7"/>
<path d="M184.645 4.05729L221.837 48.9265V4.05729H226.038V58.3248H224.37L187.117 13.4556V58.2641H182.854V4.05729H184.645Z" fill="#053B50"/>
<path d="M242.534 39.1644C242.534 27.7046 251.368 19.3977 262.365 19.3977C273.362 19.3977 283.123 26.0068 281.641 40.9228H246.488C247.291 49.8966 254.334 55.1112 262.365 55.1112C267.493 55.1112 273.486 53.1103 276.451 49.2903L279.231 51.4731C275.463 56.3845 268.667 58.8099 262.427 58.8099C251.368 58.8099 242.534 51.2912 242.534 39.1644ZM278.181 37.5879C278.119 28.129 271.756 22.8539 262.365 22.8539C254.334 22.8539 247.353 28.1897 246.488 37.5879H278.181Z" fill="#053B50"/>
<path d="M311.728 35.6476L323.343 20.004H327.976V20.186L314.014 38.4974L329.088 58.2035V58.3854H324.516L311.728 41.226L298.939 58.2642H294.368V58.0823L309.442 38.4368L295.48 20.1253V20.004H300.113L311.728 35.6476Z" fill="#053B50"/>
<path d="M352.379 8.42294V19.9434H365.662V23.0964H352.379V46.4405C352.379 51.655 353.491 55.2931 359.546 55.2931C361.461 55.2931 363.562 54.6867 365.539 53.7166L366.898 56.8089C364.427 57.961 362.017 58.7492 359.546 58.7492C351.267 58.7492 348.549 53.9591 348.549 46.4405V23.157H340.332V20.004H348.611V8.84738L352.379 8.42294Z" fill="#053B50"/>
<path d="M2.26922 77.0001H9.55933V77.849H2.26922V82.6391H10.1154V83.5486H1.34251V71.3611H9.93002V72.2706H2.26922V77.0001Z" fill="#053B50"/>
<path d="M24.4484 71.4217V83.6092H23.5835V81.7296C22.8421 83.0635 21.4212 83.7911 19.9384 83.7911C17.4672 83.7911 15.552 82.2146 15.552 79.3648C15.552 76.515 17.529 74.9385 19.9384 74.9385C21.4212 74.9385 22.8421 75.5449 23.5835 76.9395V71.4824H24.4484V71.4217ZM16.3552 79.3042C16.3552 81.6689 17.9615 82.8816 19.9384 82.8816C21.9772 82.8816 23.5217 81.4264 23.5217 79.2435C23.5217 77.1214 21.9772 75.6661 19.9384 75.6661C18.0233 75.6661 16.3552 76.8788 16.3552 79.3042Z" fill="#053B50"/>
<path d="M37.7313 83.6092V82.0327C37.0517 83.2454 35.8161 83.7305 34.5804 83.7305C32.2328 83.7305 30.6265 82.3359 30.6265 79.9105V74.9385H31.4914V79.9105C31.4914 81.8508 32.727 82.8816 34.6422 82.8816C36.4339 82.8816 37.7313 81.5476 37.7313 79.7286V74.9385H38.5962V83.5486H37.7313V83.6092Z" fill="#053B50"/>
<path d="M51.9408 82.3965C51.0759 83.2454 49.902 83.6698 48.7282 83.6698C46.257 83.6698 44.2182 81.9721 44.2182 79.3042C44.2182 76.5757 46.1952 74.9385 48.7282 74.9385C49.902 74.9385 51.0141 75.363 51.9408 76.2118L51.3847 76.7576C50.7051 76.0906 49.7167 75.7268 48.7282 75.7268C46.7512 75.7268 45.0831 77.0001 45.0831 79.3042C45.0831 81.6083 46.7512 82.8816 48.7282 82.8816C49.6549 82.8816 50.6434 82.5178 51.323 81.7902L51.9408 82.3965Z" fill="#053B50"/>
<path d="M66.0885 74.9992C66.0885 77.849 66.0885 80.7594 66.0885 83.6092H65.2236V81.7902C64.3587 83.1241 63.0612 83.7305 61.6403 83.7305C59.1691 83.7305 57.1921 81.9115 57.1921 79.3042C57.1921 76.6969 59.1691 74.8779 61.6403 74.8779C63.0612 74.8779 64.4822 75.5449 65.2236 76.8788V74.9992H66.0885ZM58.057 79.3042C58.057 81.487 59.6633 82.8816 61.6403 82.8816C66.521 82.8816 66.521 75.6661 61.6403 75.6661C59.6015 75.7268 58.057 77.1214 58.057 79.3042Z" fill="#053B50"/>
<path d="M73.9964 72.3919V74.9992H76.9619V75.7268H73.9964V80.9413C73.9964 82.0933 74.2435 82.9422 75.6027 82.9422C76.0352 82.9422 76.5294 82.821 76.9619 82.5784L77.2708 83.2454C76.7148 83.4879 76.1587 83.6698 75.6027 83.6698C73.7493 83.6698 73.1315 82.5784 73.1315 80.8807V75.6661H71.2781V74.9385H73.1315V72.4525L73.9964 72.3919Z" fill="#053B50"/>
<path d="M84.0048 72.1494C84.0048 73.0589 82.5839 73.0589 82.5839 72.1494C82.6457 71.3005 84.0048 71.3005 84.0048 72.1494ZM82.8928 74.9385V83.6092H83.7577V74.9385H82.8928Z" fill="#053B50"/>
<path d="M89.9358 79.3042C89.9358 76.5757 91.9128 74.8173 94.384 74.8173C96.8552 74.8173 98.8322 76.5757 98.8322 79.3042C98.8322 82.0327 96.8552 83.7305 94.384 83.7305C91.9128 83.7305 89.9358 82.0327 89.9358 79.3042ZM97.9673 79.3042C97.9673 77.0607 96.3609 75.6055 94.384 75.6055C92.407 75.6055 90.8007 77.0607 90.8007 79.3042C90.8007 81.5476 92.407 82.8816 94.384 82.8816C96.3609 82.8816 97.9673 81.5476 97.9673 79.3042Z" fill="#053B50"/>
<path d="M105.628 74.9992V76.515C106.308 75.3023 107.543 74.8173 108.779 74.8173C111.127 74.8173 112.733 76.2118 112.733 78.6372V83.6092H111.868V78.6372C111.868 76.6969 110.632 75.6661 108.717 75.6661C106.925 75.6661 105.628 77.0001 105.628 78.8191V83.6092H104.763V74.9992H105.628Z" fill="#053B50"/>
<path d="M138.681 72.7557L133.924 79.9105H133.615L128.796 72.7557V83.6092H127.807V71.4217C128.24 71.4217 128.487 71.4217 128.919 71.4217L133.676 78.5159L138.372 71.4217H139.546V83.6092H138.619V72.7557H138.681Z" fill="#053B50"/>
<path d="M154.744 74.9992C154.744 77.849 154.744 80.7594 154.744 83.6092H153.879V81.7902C153.014 83.1241 151.716 83.7305 150.295 83.7305C147.824 83.7305 145.847 81.9115 145.847 79.3042C145.847 76.6969 147.824 74.8779 150.295 74.8779C151.716 74.8779 153.137 75.5449 153.879 76.8788V74.9992H154.744ZM146.65 79.3042C146.65 81.487 148.257 82.8816 150.234 82.8816C155.114 82.8816 155.114 75.6661 150.234 75.6661C148.257 75.7268 146.65 77.1214 146.65 79.3042Z" fill="#053B50"/>
<path d="M161.848 74.9992V76.515C162.528 75.3023 163.764 74.8173 164.999 74.8173C167.347 74.8173 168.953 76.2118 168.953 78.6372V83.6092H168.088V78.6372C168.088 76.6969 166.853 75.6661 164.937 75.6661C163.146 75.6661 161.848 77.0001 161.848 78.8191V83.6092H160.983V74.9992H161.848Z" fill="#053B50"/>
<path d="M183.533 74.9992C183.533 77.849 183.533 80.7594 183.533 83.6092H182.668V81.7902C181.803 83.1241 180.506 83.7305 179.085 83.7305C176.614 83.7305 174.637 81.9115 174.637 79.3042C174.637 76.6969 176.614 74.8779 179.085 74.8779C180.506 74.8779 181.927 75.5449 182.668 76.8788V74.9992H183.533ZM175.502 79.3042C175.502 81.487 177.108 82.8816 179.085 82.8816C183.966 82.8816 183.966 75.6661 179.085 75.6661C177.108 75.7268 175.502 77.1214 175.502 79.3042Z" fill="#053B50"/>
<path d="M196.878 74.6354L197.434 75.1204L196.569 76.0906C197.187 76.7575 197.681 77.6064 197.681 79.001C197.681 80.5169 196.754 82.0327 195.333 82.6391C196.878 83.1848 197.743 84.2155 197.743 85.7314C197.743 88.0355 195.889 89.1875 193.542 89.1875C191.194 89.1875 189.402 87.9142 189.402 85.7314H190.267C190.267 87.4898 191.812 88.3387 193.542 88.3387C195.272 88.3387 196.878 87.5504 196.878 85.7314C196.878 83.9124 195.21 83.1241 193.542 83.1241C191.009 83.1241 189.402 81.2445 189.402 78.9404C189.402 76.2725 191.256 74.7566 193.542 74.7566C194.407 74.7566 195.333 75.0598 196.013 75.5449L196.878 74.6354ZM190.267 79.001C190.267 80.7594 191.503 82.3359 193.542 82.3359C195.333 82.3359 196.816 80.82 196.816 79.001C196.816 76.8182 195.333 75.6661 193.542 75.6661C191.75 75.6661 190.267 76.7576 190.267 79.001Z" fill="#053B50"/>
<path d="M202.871 79.3042C202.871 76.6969 204.848 74.8779 207.319 74.8779C209.79 74.8779 212.014 76.3331 211.643 79.7286H203.797C203.983 81.7295 205.527 82.9422 207.381 82.9422C208.554 82.9422 209.914 82.5178 210.531 81.6083L211.149 82.0933C210.284 83.1848 208.801 83.7305 207.381 83.7305C204.848 83.7305 202.871 82.0327 202.871 79.3042ZM210.902 78.9404C210.902 76.8182 209.481 75.6055 207.381 75.6055C205.589 75.6055 203.983 76.8182 203.797 78.9404H210.902Z" fill="#053B50"/>
<path d="M230.672 83.6092V78.4553C230.672 76.8182 229.56 75.6055 227.892 75.6055C226.224 75.6055 225.05 76.8182 225.05 78.4553V83.5486H224.185V78.4553C224.185 76.8182 223.011 75.6055 221.343 75.6055C219.675 75.6055 218.563 76.8182 218.563 78.4553V83.5486H217.698V74.9385H218.501V76.3938C219.119 75.2417 220.231 74.8173 221.343 74.8173C222.702 74.8173 224.061 75.4236 224.617 76.9395C225.173 75.5449 226.533 74.8173 227.892 74.8173C230.054 74.8173 231.537 76.2725 231.537 78.4553V83.6092H230.672Z" fill="#053B50"/>
<path d="M237.406 79.3042C237.406 76.6969 239.383 74.8779 241.854 74.8779C244.325 74.8779 246.549 76.3331 246.179 79.7286H238.271C238.456 81.7295 240.001 82.9422 241.854 82.9422C243.028 82.9422 244.387 82.5178 245.005 81.6083L245.623 82.0933C244.758 83.1848 243.275 83.7305 241.854 83.7305C239.383 83.7305 237.406 82.0327 237.406 79.3042ZM245.376 78.9404C245.376 76.8182 243.955 75.6055 241.854 75.6055C240.062 75.6055 238.456 76.8182 238.271 78.9404H245.376Z" fill="#053B50"/>
<path d="M253.222 74.9992V76.515C253.901 75.3023 255.137 74.8173 256.372 74.8173C258.72 74.8173 260.326 76.2118 260.326 78.6372V83.6092H259.4V78.6372C259.4 76.6969 258.164 75.6661 256.249 75.6661C254.457 75.6661 253.16 77.0001 253.16 78.8191V83.6092H252.295V74.9992H253.222Z" fill="#053B50"/>
<path d="M268.111 72.3919V74.9992H271.076V75.7268H268.111V80.9413C268.111 82.0933 268.358 82.9422 269.717 82.9422C270.15 82.9422 270.644 82.821 271.076 82.5784L271.385 83.2454C270.829 83.4879 270.273 83.6698 269.717 83.6698C267.864 83.6698 267.246 82.5784 267.246 80.8807V75.6661H265.392V74.9385H267.246V72.4525L268.111 72.3919Z" fill="#053B50"/>
<path d="M293.997 73.7258C293.07 72.2706 291.649 72.0887 290.228 72.0887C288.746 72.0887 286.46 72.6344 286.46 74.5747C286.46 76.1512 288.189 76.515 290.228 76.8788C292.638 77.3033 295.109 77.7277 295.109 80.3956C295.109 83.1241 292.267 83.7911 290.166 83.7911C288.251 83.7911 286.027 83.0029 285.1 81.1232L285.965 80.6988C286.707 82.154 288.684 82.8816 290.228 82.8816C291.773 82.8816 294.182 82.4572 294.182 80.2743C294.182 78.4553 292.143 78.0309 290.105 77.6671C287.819 77.2426 285.533 76.7575 285.533 74.5141C285.471 71.9068 288.189 71.1186 290.228 71.1186C292.02 71.1186 293.564 71.4217 294.8 73.1801L293.997 73.7258Z" fill="#053B50"/>
<path d="M308.453 74.9992L303.14 87.1866H302.214L303.82 83.4879L300.298 74.9992H301.225L303.264 80.0924L304.314 82.5784L305.303 80.0924L307.527 74.9992H308.453Z" fill="#053B50"/>
<path d="M320.068 76.5757C319.203 75.7874 318.338 75.6661 317.35 75.6661C315.991 75.6661 314.693 76.1512 314.693 77.2426C314.755 78.3947 316.238 78.6372 317.35 78.8191C318.894 79.0617 321.057 79.3648 320.995 81.3657C320.933 83.2454 318.956 83.7911 317.412 83.7911C315.867 83.7911 314.323 83.2454 313.581 82.0933L314.199 81.5476C314.94 82.5784 316.238 83.0029 317.412 83.0029C318.462 83.0029 320.068 82.6997 320.13 81.3657C320.192 80.1531 318.709 79.9105 317.288 79.668C315.558 79.3648 313.89 79.0617 313.89 77.3639C313.89 75.6661 315.62 74.9385 317.35 74.9385C318.647 74.9385 319.759 75.3023 320.624 76.0906L320.068 76.5757Z" fill="#053B50"/>
<path d="M328.841 72.3919V74.9992H331.807V75.7268H328.841V80.9413C328.841 82.0933 329.088 82.9422 330.447 82.9422C330.88 82.9422 331.374 82.821 331.807 82.5784L332.115 83.2454C331.559 83.4879 331.003 83.6698 330.447 83.6698C328.594 83.6698 327.976 82.5784 327.976 80.8807V75.6661H326.123V74.9385H327.976V72.4525L328.841 72.3919Z" fill="#053B50"/>
<path d="M337.243 79.3042C337.243 76.6969 339.22 74.8779 341.691 74.8779C344.163 74.8779 346.387 76.3331 346.016 79.7286H338.108C338.293 81.7295 339.838 82.9422 341.691 82.9422C342.865 82.9422 344.224 82.5178 344.842 81.6083L345.46 82.0933C344.595 83.1848 343.112 83.7305 341.691 83.7305C339.22 83.7305 337.243 82.0327 337.243 79.3042ZM345.213 78.9404C345.213 76.8182 343.792 75.6055 341.691 75.6055C339.9 75.6055 338.293 76.8182 338.108 78.9404H345.213Z" fill="#053B50"/>
<path d="M364.983 83.6092V78.4553C364.983 76.8182 363.871 75.6055 362.203 75.6055C360.535 75.6055 359.361 76.8182 359.361 78.4553V83.5486H358.496V78.4553C358.496 76.8182 357.322 75.6055 355.654 75.6055C353.986 75.6055 352.874 76.8182 352.874 78.4553V83.5486H352.009V74.9385H352.812V76.3938C353.43 75.2417 354.542 74.8173 355.654 74.8173C357.013 74.8173 358.372 75.4236 358.928 76.9395C359.484 75.5449 360.843 74.8173 362.203 74.8173C364.365 74.8173 365.848 76.2725 365.848 78.4553V83.6092H364.983Z" fill="#053B50"/>
</svg>
