<svg width="32" height="40" viewBox="0 0 32 40" fill="none" xmlns="http://www.w3.org/2000/svg">
<path d="M15.9999 21.3333C13.8903 21.3333 11.828 20.7077 10.0738 19.5357C8.31972 18.3636 6.95254 16.6977 6.14521 14.7486C5.33787 12.7995 5.12664 10.6548 5.53821 8.58571C5.94979 6.51658 6.96569 4.61596 8.45745 3.1242C9.94921 1.63244 11.8498 0.616537 13.919 0.204962C15.9881 -0.206614 18.1328 0.00462166 20.0819 0.811956C22.031 1.61929 23.6969 2.98646 24.8689 4.74059C26.041 6.49471 26.6666 8.557 26.6666 10.6667C26.6666 13.4956 25.5428 16.2088 23.5424 18.2091C21.542 20.2095 18.8289 21.3333 15.9999 21.3333ZM15.9999 2.66667C14.4177 2.66667 12.871 3.13586 11.5554 4.01491C10.2398 4.89397 9.21439 6.14339 8.60889 7.6052C8.00339 9.06701 7.84496 10.6755 8.15364 12.2274C8.46232 13.7792 9.22425 15.2047 10.3431 16.3235C11.4619 17.4423 12.8874 18.2043 14.4392 18.513C15.991 18.8216 17.5996 18.6632 19.0614 18.0577C20.5232 17.4522 21.7726 16.4268 22.6517 15.1112C23.5307 13.7956 23.9999 12.2489 23.9999 10.6667C23.9999 8.54494 23.1571 6.51011 21.6568 5.00982C20.1565 3.50953 18.1217 2.66667 15.9999 2.66667Z" fill="#053B50"/>
<path d="M25.3333 40H6.66667C4.89856 40 3.20286 39.2976 1.95262 38.0474C0.702379 36.7971 0 35.1014 0 33.3333V28C4.03568e-05 27.7686 0.0602978 27.5412 0.174848 27.3402C0.289398 27.1391 0.454297 26.9713 0.653333 26.8533L7.32 22.8533C7.62079 22.7174 7.96131 22.6979 8.27567 22.7985C8.59003 22.8992 8.85589 23.1128 9.02179 23.3982C9.1877 23.6835 9.24186 24.0203 9.1738 24.3433C9.10573 24.6663 8.92028 24.9525 8.65333 25.1467L2.66667 28.76V33.3333C2.66667 34.3942 3.08809 35.4116 3.83824 36.1618C4.58839 36.9119 5.6058 37.3333 6.66667 37.3333H25.3333C26.3942 37.3333 27.4116 36.9119 28.1618 36.1618C28.9119 35.4116 29.3333 34.3942 29.3333 33.3333V28.76L23.32 25.1467C23.15 25.0698 22.998 24.9582 22.8739 24.8189C22.7497 24.6797 22.6562 24.5159 22.5993 24.3382C22.5424 24.1605 22.5234 23.9729 22.5436 23.7874C22.5638 23.602 22.6227 23.4228 22.7164 23.2615C22.8102 23.1002 22.9368 22.9604 23.088 22.8511C23.2392 22.7418 23.4116 22.6655 23.5942 22.627C23.7767 22.5885 23.9653 22.5888 24.1478 22.6278C24.3302 22.6668 24.5025 22.7436 24.6533 22.8533L31.32 26.8533C31.524 26.968 31.6942 27.1343 31.8136 27.3356C31.933 27.5369 31.9972 27.766 32 28V33.3333C32 35.1014 31.2976 36.7971 30.0474 38.0474C28.7971 39.2976 27.1014 40 25.3333 40Z" fill="#053B50"/>
</svg>
